<?xml version="1.0" encoding="UTF-8" standalone="no"?>
<!DOCTYPE svg PUBLIC "-//W3C//DTD SVG 1.1//EN" "http://www.w3.org/Graphics/SVG/1.1/DTD/svg11.dtd">
<svg width="100%" height="100%" viewBox="0 0 193 168" version="1.1" xmlns="http://www.w3.org/2000/svg" xmlns:xlink="http://www.w3.org/1999/xlink" xml:space="preserve" xmlns:serif="http://www.serif.com/" style="fill-rule:evenodd;clip-rule:evenodd;stroke-linejoin:round;stroke-miterlimit:2;">
    <g transform="matrix(1.02157,0,0,1.02157,31.0693,18.619)">
        <path d="M18.814,114.123L8.76,1.352L119.24,1.352L109.176,114.106L63.933,126.649L18.814,114.123Z" style="fill:rgb(21,114,182);fill-rule:nonzero;"/>
        <path d="M64.001,117.062L100.56,106.926L109.161,10.572L64.001,10.572L64.001,117.062Z" style="fill:rgb(51,169,220);fill-rule:nonzero;"/>
        <path d="M64.001,51.429L82.303,51.429L83.567,37.266L64.001,37.266L64.001,23.435L98.683,23.435L98.351,27.146L94.951,65.26L64.001,65.26L64.001,51.429Z" style="fill:white;fill-rule:nonzero;"/>
        <path d="M64.083,87.349L64.022,87.367L48.619,83.208L47.634,72.177L33.752,72.177L35.689,93.894L64.02,101.757L64.083,101.739L64.083,87.349Z" style="fill:rgb(235,235,235);fill-rule:nonzero;"/>
        <path d="M81.127,64.675L79.461,83.197L64.035,87.361L64.035,101.751L92.389,93.893L92.597,91.556L95.003,64.675L81.127,64.675Z" style="fill:white;fill-rule:nonzero;"/>
        <path d="M64.048,23.435L64.048,37.266L30.64,37.266L30.363,34.158L29.733,27.146L29.402,23.435L64.048,23.435ZM64.001,51.431L64.001,65.262L48.792,65.262L48.515,62.154L47.884,55.142L47.554,51.431L64.001,51.431Z" style="fill:rgb(235,235,235);fill-rule:nonzero;"/>
    </g>
</svg>
