<?xml version="1.0" encoding="UTF-8" standalone="no"?>
<!DOCTYPE svg PUBLIC "-//W3C//DTD SVG 1.1//EN" "http://www.w3.org/Graphics/SVG/1.1/DTD/svg11.dtd">
<svg width="100%" height="100%" viewBox="0 0 131 131" version="1.1" xmlns="http://www.w3.org/2000/svg" xmlns:xlink="http://www.w3.org/1999/xlink" xml:space="preserve" xmlns:serif="http://www.serif.com/" style="fill-rule:evenodd;clip-rule:evenodd;stroke-linejoin:round;stroke-miterlimit:2;">
    <g id="Layer_1">
        <path d="M93.79,114.29C93.801,123.409 101.301,130.909 110.42,130.92L130.95,130.92L130.95,110.39C130.939,101.271 123.439,93.771 114.32,93.76L110.41,93.76C95.937,93.771 84.016,81.873 84,67.4L84,63.51C83.984,54.41 76.51,46.923 67.41,46.89L63.51,46.89C49.056,46.868 37.171,34.974 37.16,20.52L37.16,16.62C37.144,7.505 29.645,0.011 20.53,0L0,0L0,20.52C0.011,29.639 7.511,37.139 16.63,37.15L20.54,37.15C34.994,37.166 46.884,49.056 46.9,63.51L46.9,67.4C46.927,76.507 54.423,83.989 63.53,84L67.43,84C81.884,84.016 93.774,95.906 93.79,110.36L93.79,114.29Z" style="fill:url(#_Linear1);fill-rule:nonzero;"/>
        <path d="M130.94,63.51C130.929,54.391 123.429,46.891 114.31,46.88L110.4,46.88C95.93,46.885 84.016,34.99 84,20.52L84,16.62C83.984,7.52 76.51,0.033 67.41,-0L46.9,0L46.9,20.75C47.03,29.78 54.489,37.14 63.52,37.15L67.43,37.15C81.884,37.166 93.774,49.056 93.79,63.51L93.79,67.4C93.817,76.485 101.275,83.956 110.36,84L130.94,84L130.94,63.51Z" style="fill:url(#_Linear2);fill-rule:nonzero;"/>
        <path d="M130.94,16.49C130.873,7.675 123.808,0.366 115,0L93.47,0L93.47,20.7C93.579,29.745 101.044,37.13 110.09,37.14L130.94,37.14L130.94,16.49Z" style="fill:url(#_Linear3);fill-rule:nonzero;"/>
        <path d="M0,67.44C0.016,76.559 7.521,84.055 16.64,84.06L20.55,84.06C35.004,84.076 46.894,95.966 46.91,110.42L46.91,114.31C46.921,123.429 54.421,130.929 63.54,130.94L84,130.94L84,110.19C83.865,101.183 76.438,93.837 67.43,93.8L63.53,93.8C49.072,93.789 37.176,81.898 37.16,67.44L37.16,63.54C37.149,54.444 29.686,46.954 20.59,46.91L0,46.91L0,67.44Z" style="fill:url(#_Linear4);fill-rule:nonzero;"/>
        <path d="M0,114.45C0.063,123.291 7.165,130.615 16,130.95L37.48,130.95L37.48,110.24C37.371,101.195 29.906,93.81 20.86,93.8L0,93.8L0,114.45Z" style="fill:url(#_Linear5);fill-rule:nonzero;"/>
    </g>
    <defs>
        <linearGradient id="_Linear1" x1="0" y1="0" x2="1" y2="0" gradientUnits="userSpaceOnUse" gradientTransform="matrix(94.29,94.29,-94.29,94.29,19.74,19.73)"><stop offset="0" style="stop-color:rgb(145,212,67);stop-opacity:1"/><stop offset="1" style="stop-color:rgb(72,191,224);stop-opacity:1"/></linearGradient>
        <linearGradient id="_Linear2" x1="0" y1="0" x2="1" y2="0" gradientUnits="userSpaceOnUse" gradientTransform="matrix(7924.13,7920.36,-7920.36,7924.13,3676.59,-312.48)"><stop offset="0" style="stop-color:rgb(145,212,67);stop-opacity:1"/><stop offset="1" style="stop-color:rgb(72,191,224);stop-opacity:1"/></linearGradient>
        <linearGradient id="_Linear3" x1="0" y1="0" x2="1" y2="0" gradientUnits="userSpaceOnUse" gradientTransform="matrix(3533.05,3501.93,-3501.93,3533.05,2587.47,-1006.12)"><stop offset="0" style="stop-color:rgb(145,212,67);stop-opacity:1"/><stop offset="1" style="stop-color:rgb(72,191,224);stop-opacity:1"/></linearGradient>
        <linearGradient id="_Linear4" x1="0" y1="0" x2="1" y2="0" gradientUnits="userSpaceOnUse" gradientTransform="matrix(7920.36,7923.19,-7923.19,7920.36,-312.48,3675.33)"><stop offset="0" style="stop-color:rgb(145,212,67);stop-opacity:1"/><stop offset="1" style="stop-color:rgb(72,191,224);stop-opacity:1"/></linearGradient>
        <linearGradient id="_Linear5" x1="0" y1="0" x2="1" y2="0" gradientUnits="userSpaceOnUse" gradientTransform="matrix(3533.99,3502.87,-3502.87,3533.99,-1015.33,2566.13)"><stop offset="0" style="stop-color:rgb(145,212,67);stop-opacity:1"/><stop offset="1" style="stop-color:rgb(72,191,224);stop-opacity:1"/></linearGradient>
    </defs>
</svg>
