<?xml version="1.0" encoding="UTF-8" standalone="no"?>
<!DOCTYPE svg PUBLIC "-//W3C//DTD SVG 1.1//EN" "http://www.w3.org/Graphics/SVG/1.1/DTD/svg11.dtd">
<svg width="100%" height="100%" viewBox="0 0 183 168" version="1.1" xmlns="http://www.w3.org/2000/svg" xmlns:xlink="http://www.w3.org/1999/xlink" xml:space="preserve" xmlns:serif="http://www.serif.com/" style="fill-rule:evenodd;clip-rule:evenodd;stroke-linejoin:round;stroke-miterlimit:2;">
    <g transform="matrix(1.02687,0,0,1.02687,25.6793,18.2788)">
        <path d="M73.776,67.531C71.711,67.559 74.167,68.594 76.863,69.01C77.565,68.463 78.24,67.882 78.886,67.269C77.207,67.679 75.499,67.688 73.776,67.531M84.862,64.768C86.091,63.071 86.989,61.212 87.304,59.29C87.028,60.659 86.285,61.843 85.584,63.091C81.724,65.522 85.221,61.648 85.582,60.175C81.432,65.4 85.012,63.308 84.862,64.768M88.955,54.12C89.204,50.4 88.222,51.576 87.892,52.995C88.276,53.196 88.582,55.617 88.955,54.12M65.944,3.283C67.046,3.481 68.325,3.633 68.146,3.895C69.352,3.632 69.626,3.389 65.944,3.283M68.146,3.896L67.367,4.057L68.092,3.993L68.146,3.896M102.518,55.53C102.641,58.87 101.54,60.491 100.549,63.359L98.763,64.251C97.303,67.089 98.905,66.053 97.86,68.31C95.579,70.337 90.939,74.655 89.454,75.048C88.37,75.025 90.188,73.77 90.426,73.277C87.374,75.375 87.977,76.424 83.308,77.699L83.172,77.394C71.656,82.811 55.662,72.076 55.873,57.428C55.75,58.359 55.524,58.125 55.268,58.502C54.674,50.965 58.749,43.395 65.621,40.306C72.343,36.977 80.223,38.343 85.038,42.83C82.394,39.365 77.129,35.693 70.89,36.037C64.779,36.134 59.062,40.017 57.155,44.233C54.023,46.205 53.66,51.833 52.296,52.861C50.461,66.352 55.749,72.179 64.694,79.036C66.101,79.985 65.09,80.129 65.281,80.851C62.309,79.459 59.587,77.358 57.35,74.786C58.536,76.525 59.818,78.215 61.475,79.542C58.672,78.593 54.929,72.752 53.835,72.514C58.667,81.163 73.434,87.683 81.168,84.449C77.589,84.58 73.044,84.522 69.023,83.036C67.335,82.167 65.039,80.367 65.449,80.029C76.002,83.973 86.905,83.017 96.035,75.696C98.358,73.886 100.896,70.809 101.629,70.766C100.524,72.427 101.817,71.566 100.969,73.032C103.285,69.299 99.964,71.511 103.363,66.584L104.619,68.313C104.152,65.215 108.467,61.452 108.029,56.551C109.019,55.052 109.133,58.163 108.083,61.612C109.54,57.787 108.467,57.172 108.842,54.015C109.246,55.077 109.777,56.203 110.05,57.323C109.1,53.627 111.025,51.097 111.5,48.95C111.033,48.742 110.036,50.584 109.808,46.218C109.842,44.322 110.336,45.225 110.526,44.758C110.153,44.543 109.177,43.09 108.582,40.302C109.013,39.647 109.733,42 110.321,42.097C109.943,39.88 109.293,38.19 109.268,36.488C107.555,32.909 108.662,36.966 107.272,34.952C105.449,29.265 108.785,33.632 109.01,31.049C111.773,35.052 113.349,41.257 114.072,43.826C113.52,40.693 112.629,37.658 111.54,34.721C112.379,35.075 110.188,28.275 112.631,32.778C110.022,23.178 101.465,14.209 93.593,10C94.555,10.881 95.772,11.989 95.336,12.162C91.421,9.831 92.109,9.649 91.549,8.664C88.359,7.367 88.15,8.768 86.038,8.667C80.026,5.479 78.867,5.817 73.335,3.819L73.587,4.996C69.603,3.669 68.946,5.499 64.642,5C64.379,4.795 66.021,4.26 67.372,4.063C63.522,4.571 63.702,3.304 59.934,4.203C60.863,3.552 61.843,3.121 62.834,2.566C59.695,2.757 55.339,4.394 56.683,2.905C51.562,5.191 42.465,8.398 37.361,13.185L37.2,12.112C34.861,14.921 27,20.499 26.374,24.134L25.749,24.28C24.531,26.34 23.745,28.676 22.779,30.797C21.187,33.51 20.445,31.841 20.672,32.266C17.54,38.615 15.985,43.949 14.642,48.323C15.6,49.755 14.664,56.937 15.027,62.687C13.455,91.081 34.955,118.649 58.457,125.016C61.902,126.246 67.024,126.2 71.381,126.327C66.24,124.856 65.575,125.549 60.568,123.802C56.954,122.101 56.163,120.158 53.604,117.938L54.618,119.728C49.599,117.953 51.7,117.53 47.616,116.237L48.699,114.825C47.072,114.702 44.39,112.085 43.657,110.634L41.878,110.704C39.74,108.066 38.601,106.166 38.684,104.693L38.109,105.717C37.457,104.598 30.244,95.824 33.986,97.867C33.29,97.23 32.366,96.832 31.364,95.011L32.126,94.14C30.324,91.824 28.811,88.853 28.926,87.864C29.886,89.162 30.553,89.404 31.213,89.627C26.665,78.342 26.41,89.005 22.965,78.14L23.694,78.081C23.135,77.239 22.796,76.325 22.347,75.429L22.663,72.268C19.389,68.482 21.747,56.17 22.22,49.417C22.548,46.671 24.953,43.748 26.783,39.165L25.669,38.973C27.8,35.256 37.836,24.045 42.484,24.622C44.735,21.793 42.038,24.611 41.598,23.899C46.543,18.78 48.098,20.282 51.436,19.362C55.036,17.225 48.347,20.195 50.053,18.547C56.276,16.958 54.463,14.934 62.581,14.127C63.438,14.614 60.594,14.879 59.88,15.512C65.065,12.976 76.288,13.553 83.577,16.92C92.035,20.872 101.538,32.558 101.913,43.551L102.34,43.665C102.124,48.035 103.009,53.089 101.475,57.731L102.518,55.53M51.233,70.366L50.943,71.814C52.3,73.659 53.378,75.657 55.11,77.097C53.864,74.663 52.937,73.657 51.233,70.366M54.441,70.24C53.723,69.445 53.297,68.489 52.821,67.536C53.277,69.211 54.209,70.65 55.076,72.114L54.441,70.24M111.226,57.897L110.922,58.659C110.362,62.66 109.146,66.541 107.323,70.146C109.346,66.329 110.668,62.181 111.226,57.897M66.353,2.293C67.749,1.78 69.786,2.012 71.267,1.676C69.337,1.838 67.415,1.935 65.517,2.179L66.353,2.293M17.326,28.362C17.648,31.341 15.084,32.497 17.893,30.533C19.399,27.143 17.305,29.598 17.326,28.362M14.025,42.15C14.671,40.164 14.789,38.97 15.036,37.822C13.248,40.107 14.213,40.595 14.025,42.15" style="fill:rgb(168,0,48);fill-rule:nonzero;"/>
    </g>
</svg>
