<?xml version="1.0" encoding="UTF-8" standalone="no"?>
<!DOCTYPE svg PUBLIC "-//W3C//DTD SVG 1.1//EN" "http://www.w3.org/Graphics/SVG/1.1/DTD/svg11.dtd">
<svg width="100%" height="100%" viewBox="0 0 815 943" version="1.1" xmlns="http://www.w3.org/2000/svg" xmlns:xlink="http://www.w3.org/1999/xlink" xml:space="preserve" xmlns:serif="http://www.serif.com/" style="fill-rule:evenodd;clip-rule:evenodd;stroke-linejoin:round;stroke-miterlimit:2;">
    <g transform="matrix(1,0,0,1,-756.724,-1187.08)">
        <g transform="matrix(0.622328,-0.907697,0.887454,0.608449,-1017.08,1474.74)">
            <path d="M989,1496.19L938.631,1496.19L938.631,1534.24C938.631,1548.47 949.906,1560 963.815,1560C963.815,1560 963.816,1560 963.816,1560C977.725,1560 989,1548.47 989,1534.24C989,1516.53 989,1496.19 989,1496.19Z" style="fill:rgb(95,105,227);"/>
        </g>
        <g transform="matrix(-0.622328,-0.907697,-0.887454,0.608449,3344.19,1474.74)">
            <path d="M989,1496.19L938.631,1496.19L938.631,1534.24C938.631,1548.47 949.906,1560 963.815,1560C963.815,1560 963.816,1560 963.816,1560C977.725,1560 989,1548.47 989,1534.24C989,1516.53 989,1496.19 989,1496.19Z" style="fill:rgb(95,105,227);"/>
        </g>
        <g transform="matrix(-0.622328,0.907697,-0.887454,-0.608449,3344.19,1842.87)">
            <path d="M989,1496.19L938.631,1496.19L938.631,1534.24C938.631,1548.47 949.906,1560 963.815,1560C963.815,1560 963.816,1560 963.816,1560C977.725,1560 989,1548.47 989,1534.24C989,1516.53 989,1496.19 989,1496.19Z" style="fill:rgb(95,105,227);"/>
        </g>
        <g transform="matrix(0.622328,0.907697,0.887454,-0.608449,-1016.52,1842.87)">
            <path d="M989,1496.19L938.631,1496.19L938.631,1534.24C938.631,1548.47 949.906,1560 963.815,1560C963.815,1560 963.816,1560 963.816,1560C977.725,1560 989,1548.47 989,1534.24C989,1516.53 989,1496.19 989,1496.19Z" style="fill:rgb(95,105,227);"/>
        </g>
        <g transform="matrix(-1.10055,-3.1176e-16,1.93785e-16,-1.076,2224.56,3564.8)">
            <path d="M989,1496.19L938.631,1496.19L938.631,1534.24C938.631,1548.47 949.906,1560 963.815,1560C963.815,1560 963.816,1560 963.816,1560C977.725,1560 989,1548.47 989,1534.24C989,1516.53 989,1496.19 989,1496.19Z" style="fill:url(#_Linear1);"/>
        </g>
        <g transform="matrix(-1.10055,3.1176e-16,1.93785e-16,1.076,2224.56,-246.677)">
            <path d="M989,1496.19L938.631,1496.19L938.631,1534.24C938.631,1548.47 949.906,1560 963.815,1560C963.815,1560 963.816,1560 963.816,1560C977.725,1560 989,1548.47 989,1534.24C989,1516.53 989,1496.19 989,1496.19Z" style="fill:url(#_Linear2);"/>
        </g>
        <g transform="matrix(2.28313,0,0,2.49085,-1934.93,-2221.2)">
            <path d="M1490.88,1444.7C1494.05,1443.03 1497.95,1443.03 1501.12,1444.7C1508.75,1448.72 1523.04,1456.25 1530.69,1460.29C1533.87,1461.96 1535.84,1465.08 1535.84,1468.44L1535.84,1499.56C1535.84,1502.92 1533.87,1506.04 1530.69,1507.71C1523.04,1511.75 1508.75,1519.28 1501.12,1523.3C1497.95,1524.97 1494.05,1524.97 1490.88,1523.3C1483.25,1519.28 1468.96,1511.75 1461.31,1507.71C1458.13,1506.04 1456.16,1502.92 1456.16,1499.56L1456.16,1468.44C1456.16,1465.08 1458.13,1461.96 1461.31,1460.29C1468.96,1456.25 1483.25,1448.72 1490.88,1444.7Z" style="fill:url(#_Linear3);"/>
        </g>
        <g transform="matrix(2.28313,0,0,2.49085,-1934.93,-1855.2)">
            <path d="M1490.88,1444.7C1494.05,1443.03 1497.95,1443.03 1501.12,1444.7C1508.75,1448.72 1523.04,1456.25 1530.69,1460.29C1533.87,1461.96 1535.84,1465.08 1535.84,1468.44L1535.84,1499.56C1535.84,1502.92 1533.87,1506.04 1530.69,1507.71C1523.04,1511.75 1508.75,1519.28 1501.12,1523.3C1497.95,1524.97 1494.05,1524.97 1490.88,1523.3C1483.25,1519.28 1468.96,1511.75 1461.31,1507.71C1458.13,1506.04 1456.16,1502.92 1456.16,1499.56L1456.16,1468.44C1456.16,1465.08 1458.13,1461.96 1461.31,1460.29C1468.96,1456.25 1483.25,1448.72 1490.88,1444.7Z" style="fill:url(#_Linear4);"/>
        </g>
        <g transform="matrix(2.28313,0,0,2.49085,-2567.88,-2221.2)">
            <path d="M1490.88,1444.7C1494.05,1443.03 1497.95,1443.03 1501.12,1444.7C1508.75,1448.72 1523.04,1456.25 1530.69,1460.29C1533.87,1461.96 1535.84,1465.08 1535.84,1468.44L1535.84,1499.56C1535.84,1502.92 1533.87,1506.04 1530.69,1507.71C1523.04,1511.75 1508.75,1519.28 1501.12,1523.3C1497.95,1524.97 1494.05,1524.97 1490.88,1523.3C1483.25,1519.28 1468.96,1511.75 1461.31,1507.71C1458.13,1506.04 1456.16,1502.92 1456.16,1499.56L1456.16,1468.44C1456.16,1465.08 1458.13,1461.96 1461.31,1460.29C1468.96,1456.25 1483.25,1448.72 1490.88,1444.7Z" style="fill:url(#_Linear5);"/>
        </g>
        <g transform="matrix(2.28313,0,0,2.49085,-2567.88,-1855.2)">
            <path d="M1490.88,1444.7C1494.05,1443.03 1497.95,1443.03 1501.12,1444.7C1508.75,1448.72 1523.04,1456.25 1530.69,1460.29C1533.87,1461.96 1535.84,1465.08 1535.84,1468.44L1535.84,1499.56C1535.84,1502.92 1533.87,1506.04 1530.69,1507.71C1523.04,1511.75 1508.75,1519.28 1501.12,1523.3C1497.95,1524.97 1494.05,1524.97 1490.88,1523.3C1483.25,1519.28 1468.96,1511.75 1461.31,1507.71C1458.13,1506.04 1456.16,1502.92 1456.16,1499.56L1456.16,1468.44C1456.16,1465.08 1458.13,1461.96 1461.31,1460.29C1468.96,1456.25 1483.25,1448.72 1490.88,1444.7Z" style="fill:url(#_Linear6);"/>
        </g>
        <g transform="matrix(2.28313,0,0,2.49085,-2251.41,-1671.73)">
            <path d="M1490.88,1444.7C1494.05,1443.03 1497.95,1443.03 1501.12,1444.7C1508.75,1448.72 1523.04,1456.25 1530.69,1460.29C1533.87,1461.96 1535.84,1465.08 1535.84,1468.44L1535.84,1499.56C1535.84,1502.92 1533.87,1506.04 1530.69,1507.71C1523.04,1511.75 1508.75,1519.28 1501.12,1523.3C1497.95,1524.97 1494.05,1524.97 1490.88,1523.3C1483.25,1519.28 1468.96,1511.75 1461.31,1507.71C1458.13,1506.04 1456.16,1502.92 1456.16,1499.56L1456.16,1468.44C1456.16,1465.08 1458.13,1461.96 1461.31,1460.29C1468.96,1456.25 1483.25,1448.72 1490.88,1444.7Z" style="fill:url(#_Linear7);"/>
        </g>
        <g transform="matrix(2.28313,0,0,2.49085,-2251.41,-2404.73)">
            <path d="M1490.88,1444.7C1494.05,1443.03 1497.95,1443.03 1501.12,1444.7C1508.75,1448.72 1523.04,1456.25 1530.69,1460.29C1533.87,1461.96 1535.84,1465.08 1535.84,1468.44L1535.84,1499.56C1535.84,1502.92 1533.87,1506.04 1530.69,1507.71C1523.04,1511.75 1508.75,1519.28 1501.12,1523.3C1497.95,1524.97 1494.05,1524.97 1490.88,1523.3C1483.25,1519.28 1468.96,1511.75 1461.31,1507.71C1458.13,1506.04 1456.16,1502.92 1456.16,1499.56L1456.16,1468.44C1456.16,1465.08 1458.13,1461.96 1461.31,1460.29C1468.96,1456.25 1483.25,1448.72 1490.88,1444.7Z" style="fill:url(#_Linear8);"/>
        </g>
        <g transform="matrix(0.707107,-0.707107,0.707107,0.707107,-821.047,1130.94)">
            <rect x="938.631" y="1496.19" width="50.369" height="63.81" style="fill:none;"/>
        </g>
        <g transform="matrix(1,0.566871,0,1.15622,0.316537,-818.091)">
            <rect x="1010" y="1571.86" width="153.833" height="153.144" style="fill:rgb(255,205,0);"/>
        </g>
        <g transform="matrix(-0.993608,0.563248,0,1.15622,2320.54,-813.873)">
            <rect x="1010" y="1571.86" width="153.833" height="153.144" style="fill:rgb(255,145,0);"/>
        </g>
        <g transform="matrix(1.06888,0,0,2.52938,-90.7169,-2405.37)">
            <path d="M1174,1537L1317,1572.41L1174,1606.89L1174,1537Z" style="fill:rgb(255,205,0);"/>
        </g>
        <g transform="matrix(-1.06888,0,0,2.52938,2419.02,-2405.37)">
            <path d="M1174,1537L1317,1572.41L1174,1606.89L1174,1537Z" style="fill:rgb(255,244,125);"/>
        </g>
    </g>
    <defs>
        <linearGradient id="_Linear1" x1="0" y1="0" x2="1" y2="0" gradientUnits="userSpaceOnUse" gradientTransform="matrix(-50.3693,1.45939e-14,-9.07134e-15,-51.5182,989,1532.33)"><stop offset="0" style="stop-color:rgb(124,132,232);stop-opacity:1"/><stop offset="1" style="stop-color:rgb(95,105,227);stop-opacity:1"/></linearGradient>
        <linearGradient id="_Linear2" x1="0" y1="0" x2="1" y2="0" gradientUnits="userSpaceOnUse" gradientTransform="matrix(-50.3693,1.45939e-14,-9.07134e-15,-51.5182,989,1532.33)"><stop offset="0" style="stop-color:rgb(124,132,232);stop-opacity:1"/><stop offset="1" style="stop-color:rgb(95,105,227);stop-opacity:1"/></linearGradient>
        <linearGradient id="_Linear3" x1="0" y1="0" x2="1" y2="0" gradientUnits="userSpaceOnUse" gradientTransform="matrix(79.6743,-1.82567e-13,1.99177e-13,73.0299,1456.16,1484)"><stop offset="0" style="stop-color:rgb(182,186,242);stop-opacity:1"/><stop offset="1" style="stop-color:rgb(124,132,232);stop-opacity:1"/></linearGradient>
        <linearGradient id="_Linear4" x1="0" y1="0" x2="1" y2="0" gradientUnits="userSpaceOnUse" gradientTransform="matrix(79.6743,-1.82567e-13,1.99177e-13,73.0299,1456.16,1484)"><stop offset="0" style="stop-color:rgb(182,186,242);stop-opacity:1"/><stop offset="1" style="stop-color:rgb(124,132,232);stop-opacity:1"/></linearGradient>
        <linearGradient id="_Linear5" x1="0" y1="0" x2="1" y2="0" gradientUnits="userSpaceOnUse" gradientTransform="matrix(79.6743,-1.82567e-13,1.99177e-13,73.0299,1456.16,1484)"><stop offset="0" style="stop-color:rgb(182,186,242);stop-opacity:1"/><stop offset="1" style="stop-color:rgb(124,132,232);stop-opacity:1"/></linearGradient>
        <linearGradient id="_Linear6" x1="0" y1="0" x2="1" y2="0" gradientUnits="userSpaceOnUse" gradientTransform="matrix(79.6743,-1.82567e-13,1.99177e-13,73.0299,1456.16,1484)"><stop offset="0" style="stop-color:rgb(182,186,242);stop-opacity:1"/><stop offset="1" style="stop-color:rgb(124,132,232);stop-opacity:1"/></linearGradient>
        <linearGradient id="_Linear7" x1="0" y1="0" x2="1" y2="0" gradientUnits="userSpaceOnUse" gradientTransform="matrix(79.6743,-1.82567e-13,1.99177e-13,73.0299,1456.16,1484)"><stop offset="0" style="stop-color:rgb(182,186,242);stop-opacity:1"/><stop offset="1" style="stop-color:rgb(124,132,232);stop-opacity:1"/></linearGradient>
        <linearGradient id="_Linear8" x1="0" y1="0" x2="1" y2="0" gradientUnits="userSpaceOnUse" gradientTransform="matrix(79.6743,-1.82567e-13,1.99177e-13,73.0299,1456.16,1484)"><stop offset="0" style="stop-color:rgb(182,186,242);stop-opacity:1"/><stop offset="1" style="stop-color:rgb(124,132,232);stop-opacity:1"/></linearGradient>
    </defs>
</svg>
