<?xml version="1.0" encoding="UTF-8" standalone="no"?>
<!DOCTYPE svg PUBLIC "-//W3C//DTD SVG 1.1//EN" "http://www.w3.org/Graphics/SVG/1.1/DTD/svg11.dtd">
<svg width="100%" height="100%" viewBox="0 0 172 128" version="1.1" xmlns="http://www.w3.org/2000/svg" xmlns:xlink="http://www.w3.org/1999/xlink" xml:space="preserve" xmlns:serif="http://www.serif.com/" style="fill-rule:evenodd;clip-rule:evenodd;stroke-linejoin:round;stroke-miterlimit:2;">
    <g transform="matrix(0.162025,0,0,0.136893,-102.872,-162.994)">
        <g transform="matrix(0.622328,-0.907697,0.887454,0.608449,-1017.08,1474.74)">
            <path d="M989,1496.19L938.631,1496.19L938.631,1534.24C938.631,1548.47 949.906,1560 963.815,1560L963.816,1560C977.725,1560 989,1548.47 989,1534.24L989,1496.19Z" style="fill:rgb(95,105,227);"/>
        </g>
        <g transform="matrix(-0.622328,-0.907697,-0.887454,0.608449,3344.19,1474.74)">
            <path d="M989,1496.19L938.631,1496.19L938.631,1534.24C938.631,1548.47 949.906,1560 963.815,1560L963.816,1560C977.725,1560 989,1548.47 989,1534.24L989,1496.19Z" style="fill:rgb(95,105,227);"/>
        </g>
        <g transform="matrix(-0.622328,0.907697,-0.887454,-0.608449,3344.19,1842.87)">
            <path d="M989,1496.19L938.631,1496.19L938.631,1534.24C938.631,1548.47 949.906,1560 963.815,1560L963.816,1560C977.725,1560 989,1548.47 989,1534.24L989,1496.19Z" style="fill:rgb(95,105,227);"/>
        </g>
        <g transform="matrix(0.622328,0.907697,0.887454,-0.608449,-1016.52,1842.87)">
            <path d="M989,1496.19L938.631,1496.19L938.631,1534.24C938.631,1548.47 949.906,1560 963.815,1560L963.816,1560C977.725,1560 989,1548.47 989,1534.24L989,1496.19Z" style="fill:rgb(95,105,227);"/>
        </g>
        <g>
            <path d="M1163.83,1363.23L1191.55,1363.23L1191.55,1404.17C1191.55,1419.48 1179.14,1431.89 1163.83,1431.89L1163.83,1363.23Z" style="fill:rgb(95,105,227);"/>
            <g transform="matrix(-1,0,0,1,2327.67,0)">
                <path d="M1163.83,1363.23L1191.55,1363.23L1191.55,1404.17C1191.55,1419.48 1179.14,1431.89 1163.83,1431.89L1163.83,1363.23Z" style="fill:rgb(124,132,232);"/>
            </g>
        </g>
        <g transform="matrix(1,0,0,-1,0.316537,3318.12)">
            <path d="M1163.83,1363.23L1191.55,1363.23L1191.55,1404.17C1191.55,1419.48 1179.14,1431.89 1163.83,1431.89L1163.83,1363.23Z" style="fill:rgb(95,105,227);"/>
            <g transform="matrix(-1,0,0,1,2327.67,0)">
                <path d="M1163.83,1363.23L1191.55,1363.23L1191.55,1404.17C1191.55,1419.48 1179.14,1431.89 1163.83,1431.89L1163.83,1363.23Z" style="fill:rgb(124,132,232);"/>
            </g>
        </g>
        <g>
            <path d="M1164.15,1190.67C1168.18,1190.67 1172.22,1191.71 1175.83,1193.79C1193.26,1203.82 1225.88,1222.58 1243.35,1232.63C1250.62,1236.81 1255.1,1244.55 1255.1,1252.94L1255.1,1330.44C1255.1,1338.83 1250.62,1346.58 1243.35,1350.76C1225.88,1360.8 1193.26,1379.57 1175.83,1389.59C1172.22,1391.67 1168.18,1392.71 1164.15,1392.71L1164.15,1190.67Z" style="fill:rgb(124,132,232);"/>
            <g transform="matrix(-1,0,0,1,2328.3,0)">
                <path d="M1164.15,1190.67C1168.18,1190.67 1172.22,1191.71 1175.83,1193.79C1193.26,1203.82 1225.88,1222.58 1243.35,1232.63C1250.62,1236.81 1255.1,1244.55 1255.1,1252.94L1255.1,1330.44C1255.1,1338.83 1250.62,1346.58 1243.35,1350.76C1225.88,1360.8 1193.26,1379.57 1175.83,1389.59C1172.22,1391.67 1168.18,1392.71 1164.15,1392.71L1164.15,1190.67Z" style="fill:rgb(182,186,242);"/>
            </g>
        </g>
        <g transform="matrix(1,0,0,1,0,733)">
            <path d="M1164.15,1190.67C1168.18,1190.67 1172.22,1191.71 1175.83,1193.79C1193.26,1203.82 1225.88,1222.58 1243.35,1232.63C1250.62,1236.81 1255.1,1244.55 1255.1,1252.94L1255.1,1330.44C1255.1,1338.83 1250.62,1346.58 1243.35,1350.76C1225.88,1360.8 1193.26,1379.57 1175.83,1389.59C1172.22,1391.67 1168.18,1392.71 1164.15,1392.71L1164.15,1190.67Z" style="fill:rgb(124,132,232);"/>
            <g transform="matrix(-1,0,0,1,2328.3,0)">
                <path d="M1164.15,1190.67C1168.18,1190.67 1172.22,1191.71 1175.83,1193.79C1193.26,1203.82 1225.88,1222.58 1243.35,1232.63C1250.62,1236.81 1255.1,1244.55 1255.1,1252.94L1255.1,1330.44C1255.1,1338.83 1250.62,1346.58 1243.35,1350.76C1225.88,1360.8 1193.26,1379.57 1175.83,1389.59C1172.22,1391.67 1168.18,1392.71 1164.15,1392.71L1164.15,1190.67Z" style="fill:rgb(182,186,242);"/>
            </g>
        </g>
        <g transform="matrix(1,0,0,1,316.473,549.527)">
            <path d="M1164.15,1190.67C1168.18,1190.67 1172.22,1191.71 1175.83,1193.79C1193.26,1203.82 1225.88,1222.58 1243.35,1232.63C1250.62,1236.81 1255.1,1244.55 1255.1,1252.94L1255.1,1330.44C1255.1,1338.83 1250.62,1346.58 1243.35,1350.76C1225.88,1360.8 1193.26,1379.57 1175.83,1389.59C1172.22,1391.67 1168.18,1392.71 1164.15,1392.71L1164.15,1190.67Z" style="fill:rgb(124,132,232);"/>
            <g transform="matrix(-1,0,0,1,2328.3,0)">
                <path d="M1164.15,1190.67C1168.18,1190.67 1172.22,1191.71 1175.83,1193.79C1193.26,1203.82 1225.88,1222.58 1243.35,1232.63C1250.62,1236.81 1255.1,1244.55 1255.1,1252.94L1255.1,1330.44C1255.1,1338.83 1250.62,1346.58 1243.35,1350.76C1225.88,1360.8 1193.26,1379.57 1175.83,1389.59C1172.22,1391.67 1168.18,1392.71 1164.15,1392.71L1164.15,1190.67Z" style="fill:rgb(182,186,242);"/>
            </g>
        </g>
        <g transform="matrix(1,0,0,1,316.473,183.527)">
            <path d="M1164.15,1190.67C1168.18,1190.67 1172.22,1191.71 1175.83,1193.79C1193.26,1203.82 1225.88,1222.58 1243.35,1232.63C1250.62,1236.81 1255.1,1244.55 1255.1,1252.94L1255.1,1330.44C1255.1,1338.83 1250.62,1346.58 1243.35,1350.76C1225.88,1360.8 1193.26,1379.57 1175.83,1389.59C1172.22,1391.67 1168.18,1392.71 1164.15,1392.71L1164.15,1190.67Z" style="fill:rgb(124,132,232);"/>
            <g transform="matrix(-1,0,0,1,2328.3,0)">
                <path d="M1164.15,1190.67C1168.18,1190.67 1172.22,1191.71 1175.83,1193.79C1193.26,1203.82 1225.88,1222.58 1243.35,1232.63C1250.62,1236.81 1255.1,1244.55 1255.1,1252.94L1255.1,1330.44C1255.1,1338.83 1250.62,1346.58 1243.35,1350.76C1225.88,1360.8 1193.26,1379.57 1175.83,1389.59C1172.22,1391.67 1168.18,1392.71 1164.15,1392.71L1164.15,1190.67Z" style="fill:rgb(182,186,242);"/>
            </g>
        </g>
        <g transform="matrix(1,0,0,1,-316.473,183.527)">
            <path d="M1164.15,1190.67C1168.18,1190.67 1172.22,1191.71 1175.83,1193.79C1193.26,1203.82 1225.88,1222.58 1243.35,1232.63C1250.62,1236.81 1255.1,1244.55 1255.1,1252.94L1255.1,1330.44C1255.1,1338.83 1250.62,1346.58 1243.35,1350.76C1225.88,1360.8 1193.26,1379.57 1175.83,1389.59C1172.22,1391.67 1168.18,1392.71 1164.15,1392.71L1164.15,1190.67Z" style="fill:rgb(124,132,232);"/>
            <g transform="matrix(-1,0,0,1,2328.3,0)">
                <path d="M1164.15,1190.67C1168.18,1190.67 1172.22,1191.71 1175.83,1193.79C1193.26,1203.82 1225.88,1222.58 1243.35,1232.63C1250.62,1236.81 1255.1,1244.55 1255.1,1252.94L1255.1,1330.44C1255.1,1338.83 1250.62,1346.58 1243.35,1350.76C1225.88,1360.8 1193.26,1379.57 1175.83,1389.59C1172.22,1391.67 1168.18,1392.71 1164.15,1392.71L1164.15,1190.67Z" style="fill:rgb(182,186,242);"/>
            </g>
        </g>
        <g transform="matrix(1,0,0,1,-316.473,549.527)">
            <path d="M1164.15,1190.67C1168.18,1190.67 1172.22,1191.71 1175.83,1193.79C1193.26,1203.82 1225.88,1222.58 1243.35,1232.63C1250.62,1236.81 1255.1,1244.55 1255.1,1252.94L1255.1,1330.44C1255.1,1338.83 1250.62,1346.58 1243.35,1350.76C1225.88,1360.8 1193.26,1379.57 1175.83,1389.59C1172.22,1391.67 1168.18,1392.71 1164.15,1392.71L1164.15,1190.67Z" style="fill:rgb(124,132,232);"/>
            <g transform="matrix(-1,0,0,1,2328.3,0)">
                <path d="M1164.15,1190.67C1168.18,1190.67 1172.22,1191.71 1175.83,1193.79C1193.26,1203.82 1225.88,1222.58 1243.35,1232.63C1250.62,1236.81 1255.1,1244.55 1255.1,1252.94L1255.1,1330.44C1255.1,1338.83 1250.62,1346.58 1243.35,1350.76C1225.88,1360.8 1193.26,1379.57 1175.83,1389.59C1172.22,1391.67 1168.18,1392.71 1164.15,1392.71L1164.15,1190.67Z" style="fill:rgb(182,186,242);"/>
            </g>
        </g>
        <g transform="matrix(0.707107,-0.707107,0.707107,0.707107,-821.047,1130.94)">
            <rect x="938.631" y="1496.19" width="50.369" height="63.81" style="fill:none;"/>
        </g>
        <g transform="matrix(1,0.566871,0,1.15622,0.316537,-818.091)">
            <rect x="1010" y="1571.86" width="153.833" height="153.144" style="fill:rgb(255,205,0);"/>
        </g>
        <g transform="matrix(-0.993608,0.563248,0,1.15622,2320.54,-813.873)">
            <rect x="1010" y="1571.86" width="153.833" height="153.144" style="fill:rgb(255,145,0);"/>
        </g>
        <g transform="matrix(1.06888,0,0,2.52938,-90.7169,-2405.37)">
            <path d="M1174,1537L1317,1572.41L1174,1606.89L1174,1537Z" style="fill:rgb(255,205,0);"/>
        </g>
        <g transform="matrix(-1.06888,0,0,2.52938,2419.02,-2405.37)">
            <path d="M1174,1537L1317,1572.41L1174,1606.89L1174,1537Z" style="fill:rgb(255,244,125);"/>
        </g>
    </g>
</svg>
