<?xml version="1.0" encoding="UTF-8" standalone="no"?>
<!DOCTYPE svg PUBLIC "-//W3C//DTD SVG 1.1//EN" "http://www.w3.org/Graphics/SVG/1.1/DTD/svg11.dtd">
<svg width="100%" height="100%" viewBox="0 0 700 128" version="1.1" xmlns="http://www.w3.org/2000/svg" xmlns:xlink="http://www.w3.org/1999/xlink" xml:space="preserve" xmlns:serif="http://www.serif.com/" style="fill-rule:evenodd;clip-rule:evenodd;stroke-linejoin:round;stroke-miterlimit:2;">
    <g transform="matrix(0.384384,0,0,0.384384,38.8408,0)">
        <rect x="1302" y="0" width="52" height="40" style="fill:rgb(0,174,239);"/>
        <g transform="matrix(1,0,0,30.6667,0,-7802.33)">
            <rect x="1302" y="257" width="52" height="6" style="fill:rgb(0,174,239);"/>
        </g>
        <path d="M858,179L858,153C858,138.446 850.583,106.833 838,94C825.417,81.167 801,76 782.5,76C764,76 745.487,76 727,94C708.513,112 707,141.167 707,179C707,201 711.199,230.582 727,249C733.578,256.667 749.272,267 782.5,267C861.44,267 856,201 856,201L804,201C804,201 803.583,217.5 800,223C796.417,228.5 793.333,234 782.5,234C774.667,234 768.622,229.026 765,223C759,213.017 759,179 759,179L858,179ZM759,151L759,136.978C759,125.054 765.423,107 783,107C800.577,107 806,124.104 806,139.175L806,151L759,151Z" style="fill:rgb(0,174,239);"/>
        <path d="M648,132L699,132C699,132 701.413,116.845 692.984,102.164C685.066,88.373 667.422,75 634,75C605.183,75 591,82.333 579,91C568.242,98.77 562,115 562,127C562,147 571.5,156.83 579,163C588.654,170.942 599.698,175.612 613,182C616,183.441 638.333,191.333 648,202C651.328,205.672 653,211 653,216C653,232.974 638.7,235 634,235C621.769,235 613,230.896 613,215L613,204L562,204C562,204 562.085,208.777 562,215C561.873,224.285 566.394,246.633 582,256C593.663,263 602,267 631,267C647,267 665.092,264.031 678,256C694.917,245.474 703,230.997 703,211C703,192.271 696.173,179.98 681,169C662.959,157.403 654.416,154.005 643,149C632.14,143.739 623.198,141.685 616,132C606.833,119.667 618.783,106.109 624,105C634,101.547 645.291,106.331 646.627,114.464C647.999,122.815 648,132 648,132Z" style="fill:rgb(0,174,239);"/>
        <path d="M1393,50L1444,27L1444,79L1511,79L1538,209L1566,79L1616,79L1545,333L1491,333L1510.99,264.458L1469,111L1444,111L1444,211C1444,232 1451.43,232 1457,232L1470,232L1470,263C1470,263 1464.72,264.941 1444.04,264.941C1432.38,264.941 1420.74,265.134 1406,254C1399.5,249.09 1393,239.205 1393,223L1393,111L1372,111L1372,79L1393,79L1393,50Z" style="fill:rgb(0,174,239);"/>
        <path d="M55,79L55,98C55,98 66.333,75 98,75C127.253,75 140.52,98.435 140.52,98.435C153.841,79.514 172.176,75 186.594,75C210.649,75 233.877,89.628 234,111.61L234,263L182,263L182,124L181.896,124C180.895,114.452 172.811,107 163,107C153.189,107 145.105,114.452 144.104,124L144,124L144,263L93,263L93,124L92.896,124C91.895,114.452 83.811,107 74,107C64.189,107 56.105,114.452 55.104,124L55,124L55,263L3,263L3,79L55,79Z" style="fill:white;"/>
        <path d="M322,75C355.089,75 377.556,85.719 388.624,109.326C395.619,124.244 397,143.513 397,171C397,200.439 395.027,225.202 383.52,242.077C369.767,262.248 346.413,267 322,267C297.219,267 274.615,262.794 261.017,242.077C249.801,224.99 247,207.467 247,171C247,153.121 246.748,139.969 249.522,127.642C257.918,90.328 281.41,75 322,75ZM322,107.923C333.366,107.923 340.269,114.729 342.946,125.775C345.724,137.239 346,153.27 346,171C346,188.475 345.1,202.229 342.843,213.738C340.226,226.624 335.546,234.077 322,234.077C307.27,234.077 302.63,221.827 301.788,218.405C298.894,206.638 298,183.117 298,171C298,150.132 299.282,134.617 301.788,123.132C304.405,115.199 311.105,107.923 322,107.923Z" style="fill:white;"/>
        <path d="M553,263L504,263L504,243C504,243 498.211,251.772 493.24,256.651C487.136,262.64 476.706,267 459,267C439.852,267 428.775,261.47 417.904,243C408.967,227.817 408.07,199.023 408,181.139L408,157.932C408.106,138.522 409.03,119.406 415.519,104.133C425.947,79.59 444.334,75 459,75C490.238,75 501,97 501,97L501,0L553,0L553,263ZM480,107C486.806,107 494.284,110.097 498.087,121.812C501.875,133.482 501,153.736 501,171.5C501,188.671 500.945,208.223 497.377,219.786C493.549,232.195 488,236 480,236C474,236 465.783,231.928 461.941,218.981C458.539,207.517 459,188.218 459,171.5C459,157.176 458.244,136.426 460.82,125.717C464.646,109.812 472.074,107 480,107Z" style="fill:white;"/>
        <path d="M1017,145C1017,145 1018,110.986 1003,97C983.667,78.973 969.434,76 943,76C915.167,76 896.5,81.333 884,97C871.5,112.667 868,131.333 868,170C868,208.667 871.5,228.833 884,245C896.5,261.167 916.166,267.001 943,267C975.833,266.998 990.829,258.171 1003,246C1018,231 1018,196 1018,196L967,196C967,196 966,211 963,219C958.855,230.054 949.667,234 943,234C936.333,234 927,234 923,219C920.065,207.993 919.002,186.388 919,170C918.996,132.5 920.599,122.161 927.534,114.16C929.419,111.406 937.667,108 943,108C948.333,108 954.972,109.972 959,114C966,121 966,145 966,145L1017,145Z" style="fill:rgb(0,174,239);"/>
        <path d="M1029,79L1080,79C1080,79 1080.02,186 1080,215C1080,215.955 1081.67,225.5 1085,229C1088.33,232.5 1095.17,236 1100,236C1104.83,236 1110.83,232.5 1114,229C1117.17,225.5 1119,219.955 1119,215L1119,79L1170,79L1170,233C1170,234.022 1172,263 1172,263L1119,263L1119,244C1119,244 1114.35,253.478 1104.35,260.095C1097.64,264.531 1088.98,267 1076,267C1056.67,267 1039.83,260 1033,244C1031.22,239.831 1029,234.534 1029,231L1029,79Z" style="fill:rgb(0,174,239);"/>
        <path d="M1193,79L1242,79L1242,103C1251.55,83.251 1267.58,74.293 1290,76L1290,121C1290,121 1265.15,117.99 1251,133C1246.7,137.561 1244,148.937 1244,160L1244,263L1193,263L1193,79Z" style="fill:rgb(0,174,239);"/>
    </g>
</svg>
