<?xml version="1.0" encoding="UTF-8" standalone="no"?>
<!DOCTYPE svg PUBLIC "-//W3C//DTD SVG 1.1//EN" "http://www.w3.org/Graphics/SVG/1.1/DTD/svg11.dtd">
<svg width="100%" height="100%" viewBox="0 0 126 27" version="1.1" xmlns="http://www.w3.org/2000/svg" xmlns:xlink="http://www.w3.org/1999/xlink" xml:space="preserve" xmlns:serif="http://www.serif.com/" style="fill-rule:evenodd;clip-rule:evenodd;stroke-linejoin:round;stroke-miterlimit:2;">
    <g transform="matrix(1,0,0,1,-1,-50.5)">
        <path d="M24.5,50.5C23,50.5 22,51.7 22,53.2L22,67.3L6.1,51.3C5.3,50.5 3.9,50.3 2.9,50.7C1.9,51.1 1,52.1 1,53.2L1,73.9C1,75.4 2.5,76.6 4,76.6C5.5,76.6 7,75.4 7,73.9L7,59.8L23.1,75.8C23.6,76.3 24.3,76.6 25,76.6C25.3,76.6 25.4,76.5 25.7,76.4C26.7,76 27,75 27,73.9L27,53.3C27,51.8 26,50.5 24.5,50.5ZM44.2,62.3C42.8,62.3 41.5,63.7 41.5,65.1C41.5,66.5 42.8,67.9 44.2,67.9L50.8,68.3L49.3,72L40.8,72L36.6,64.1L40.9,56L50,56L52.1,60L57.6,60L54,52.1L53.2,51L37.6,51L36.9,52.2L31,62.5L30.3,63.8L31,65.1L36.8,75.4L37.6,77L52.7,77L53.4,75.3L57.7,66.3L59.6,62L55.2,62L44.2,62.3ZM65,50.5C63.6,50.5 62,51.8 62,53.2L62,60L68,60L68,53.3C68,51.8 66.4,50.5 65,50.5ZM95.4,50.8C94.4,50.4 93,50.6 92.3,51.4L76,67.4L76,53.3C76,51.8 75,50.6 73.5,50.6C72,50.6 71,51.8 71,53.3L71,74C71,75.1 71.7,76.1 72.7,76.5C73,76.6 73.4,76.7 73.7,76.7C74.4,76.7 75.3,76.4 75.8,75.9L92,59.9L92,74C92,75.5 93,76.7 94.5,76.7C96,76.7 97,75.5 97,74L97,53.3C97,52.2 96.4,51.2 95.4,50.8ZM117.2,63.6L125.6,55.2C126.7,54.1 126.7,52.4 125.6,51.4C124.5,50.3 122.8,50.3 121.8,51.4L113.4,59.8L105,51.4C103.9,50.3 102.2,50.3 101.2,51.4C100.1,52.5 100.1,54.2 101.2,55.2L109.6,63.6L101.2,72C100.1,73.1 100.1,74.8 101.2,75.8C101.7,76.3 102.4,76.6 103.1,76.6C103.8,76.6 104.5,76.3 105,75.8L113.4,67.4L121.8,75.8C122.3,76.3 123,76.6 123.7,76.6C124.4,76.6 125.1,76.3 125.6,75.8C126.7,74.7 126.7,73 125.6,72L117.2,63.6ZM62,73.9C62,75.3 63.5,76.6 65,76.6C66.4,76.6 68,75.3 68,73.9L68,62L62,62L62,73.9Z" style="fill:rgb(0,153,0);fill-rule:nonzero;"/>
    </g>
</svg>
