<?xml version="1.0" encoding="UTF-8" standalone="no"?>
<!DOCTYPE svg PUBLIC "-//W3C//DTD SVG 1.1//EN" "http://www.w3.org/Graphics/SVG/1.1/DTD/svg11.dtd">
<svg width="100%" height="100%" viewBox="0 0 208 168" version="1.1" xmlns="http://www.w3.org/2000/svg" xmlns:xlink="http://www.w3.org/1999/xlink" xml:space="preserve" xmlns:serif="http://www.serif.com/" style="fill-rule:evenodd;clip-rule:evenodd;stroke-linejoin:round;stroke-miterlimit:2;">
    <g transform="matrix(1,0,0,1,0.25,20)">
        <g transform="matrix(1.58685,0,0,1,1.66562,0)">
            <rect x="24" y="0" width="80.663" height="128" style="fill:rgb(233,84,32);"/>
        </g>
        <g transform="matrix(1,0,0,1,40.2694,-19.5215)">
            <path d="M42.443,90.31C47.054,90.31 50.793,86.542 50.793,81.894C50.793,77.246 47.054,73.478 42.443,73.478C37.831,73.478 34.093,77.246 34.093,81.894C34.093,86.542 37.831,90.31 42.443,90.31ZM77.221,71.856C81.833,71.856 85.571,68.088 85.571,63.44C85.571,58.792 81.833,55.024 77.221,55.024C72.61,55.024 68.871,58.792 68.871,63.44C68.871,68.088 72.61,71.856 77.221,71.856ZM61.276,103.558C55.26,102.259 50.234,98.388 47.408,92.896C45.176,93.918 42.682,94.226 40.268,93.779C43.687,102.243 50.938,108.39 59.841,110.314C61.794,110.736 63.784,110.941 65.771,110.928C64.237,108.898 63.382,106.435 63.327,103.891C62.639,103.814 61.955,103.702 61.279,103.555L61.276,103.558ZM75.342,112.019C79.954,112.019 83.692,108.251 83.692,103.603C83.692,98.955 79.954,95.187 75.342,95.187C70.731,95.187 66.992,98.955 66.992,103.603C66.992,108.251 70.731,112.019 75.342,112.019ZM86.962,100.512C89.559,97.212 91.388,93.312 92.267,89.168C93.797,81.938 92.379,74.388 88.33,68.205C87.37,70.489 85.73,72.424 83.635,73.747C85.891,78.036 86.575,82.982 85.565,87.722C85.078,90.028 84.199,92.233 82.968,94.243C84.926,95.862 86.325,98.057 86.965,100.515L86.962,100.512ZM41.8,69.824C42.859,69.767 43.92,69.853 44.956,70.08C46.317,70.374 47.596,70.893 48.768,71.629C52.528,66.179 58.594,62.909 65.167,62.787C65.298,60.307 66.182,57.926 67.701,55.961C57.198,55.123 46.993,60.586 41.796,69.827L41.799,69.824L41.8,69.824Z" style="fill:white;fill-rule:nonzero;"/>
        </g>
    </g>
</svg>
