<?xml version="1.0" encoding="UTF-8" standalone="no"?>
<!DOCTYPE svg PUBLIC "-//W3C//DTD SVG 1.1//EN" "http://www.w3.org/Graphics/SVG/1.1/DTD/svg11.dtd">
<svg width="100%" height="100%" viewBox="0 0 212 128" version="1.1" xmlns="http://www.w3.org/2000/svg" xmlns:xlink="http://www.w3.org/1999/xlink" xml:space="preserve" xmlns:serif="http://www.serif.com/" style="fill-rule:evenodd;clip-rule:evenodd;stroke-linejoin:round;stroke-miterlimit:2;">
    <g transform="matrix(1.03148,0,0,1.03148,39.9855,-2.01447)">
        <path d="M0,1.953L63.76,126.047L128,1.953L0,1.953ZM53.841,51.207L43.684,51.207L43.684,41.06L53.84,41.06L53.841,51.207ZM53.841,35.98L43.684,35.98L43.684,25.822L53.84,25.822L53.841,35.98ZM69.08,66.444L58.97,66.444L58.97,56.286L69.078,56.286L69.08,66.444ZM69.08,51.207L58.97,51.207L58.97,41.06L69.078,41.06L69.08,51.207ZM69.08,35.98L58.97,35.98L58.97,25.822L69.078,25.822L69.08,35.98ZM84.227,51.207L74.027,51.207L74.027,41.06L84.186,41.06L84.227,51.207ZM74.027,35.98L74.027,25.822L84.186,25.822L84.186,35.98L74.027,35.98Z" style="fill:rgb(255,216,20);fill-rule:nonzero;"/>
    </g>
</svg>
