<?xml version="1.0" encoding="UTF-8" standalone="no"?>
<!DOCTYPE svg PUBLIC "-//W3C//DTD SVG 1.1//EN" "http://www.w3.org/Graphics/SVG/1.1/DTD/svg11.dtd">
<svg width="100%" height="100%" viewBox="0 0 208 168" version="1.1" xmlns="http://www.w3.org/2000/svg" xmlns:xlink="http://www.w3.org/1999/xlink" xml:space="preserve" xmlns:serif="http://www.serif.com/" style="fill-rule:evenodd;clip-rule:evenodd;stroke-linejoin:round;stroke-miterlimit:2;">
    <g transform="matrix(1.03173,0,0,1.03173,37.9964,18.9664)">
        <path d="M64.461,7.136L8.529,63.173L64.308,119.071L120.393,63.034L64.461,7.136Z" style="fill:rgb(1,152,51);fill-rule:nonzero;"/>
        <path d="M64.308,119.211L8.376,63.174L8.529,63.035L64.614,6.858L120.546,62.895L120.393,63.034L64.308,119.211ZM8.682,63.174L64.308,118.933L120.24,63.035L64.614,7.276L8.682,63.174Z" style="fill-rule:nonzero;"/>
        <path d="M64.308,7.275L64.308,2.396L3.319,63.452L8.529,63.452L64.308,7.275Z" style="fill:rgb(102,254,152);fill-rule:nonzero;"/>
        <path d="M8.529,63.452L3.012,63.452L3.165,63.313L64.307,2.118L64.307,7.276L8.528,63.453L8.529,63.452ZM3.625,63.313L8.375,63.313L64.154,7.276L64.154,2.676L3.625,63.314L3.625,63.313Z" style="fill-rule:nonzero;"/>
        <path d="M64.154,7.275L64.154,2.396L125.143,63.452L119.933,63.452L64.154,7.275Z" style="fill:rgb(69,254,2);fill-rule:nonzero;"/>
        <path d="M125.297,63.452L119.78,63.452L64.001,7.415L64.001,2.257L64.154,2.396L125.296,63.452L125.297,63.452ZM119.934,63.313L124.684,63.313L64.308,2.675L64.308,7.275L119.934,63.312L119.934,63.313Z" style="fill-rule:nonzero;"/>
        <path d="M64.308,119.35L64.308,124.229L3.319,63.313L8.529,63.313L64.308,119.35Z" style="fill:rgb(1,125,23);fill-rule:nonzero;"/>
        <path d="M64.308,124.508L64.155,124.369L3.013,63.174L8.53,63.174L64.309,119.351L64.309,124.509L64.308,124.508ZM3.625,63.313L64.154,123.951L64.154,119.351L8.375,63.314L3.625,63.314L3.625,63.313Z" style="fill-rule:nonzero;"/>
        <path d="M33.507,112.659L21.708,112.659L17.111,110.01L17.111,22.608L13.433,22.608L10.368,19.541L10.368,9.923L13.586,6.438L54.807,6.438L58.485,10.202L58.485,19.263L55.42,23.027L52.355,23.027L52.355,52.022L81.624,23.027L79.938,23.027L76.567,19.403L76.567,9.785L79.938,6.718L121.466,6.718L124.684,10.064L124.684,19.125L33.507,112.66L33.507,112.659ZM22.934,108.198L31.669,108.198L120.394,17.172L120.394,11.736L119.781,11.039L81.625,11.039L81.012,11.597L81.012,17.452L81.931,18.428L92.504,18.428L47.912,62.477L47.912,18.428L53.429,18.428L54.195,17.592L54.195,12.016L53.122,10.901L15.578,10.901L14.812,11.737L14.812,17.731L15.272,18.289L21.708,18.289L21.708,107.363L22.934,108.199L22.934,108.198Z" style="fill-rule:nonzero;"/>
        <path d="M64.154,119.35L64.154,124.229L125.143,63.173L119.933,63.173L64.154,119.35Z" style="fill:rgb(0,93,4);fill-rule:nonzero;"/>
        <path d="M64.001,124.508L64.001,119.35L119.78,63.173L125.297,63.173L125.144,63.312L64.002,124.507L64.001,124.508ZM64.307,119.349L64.307,123.95L124.836,63.312L120.086,63.312L64.307,119.349Z" style="fill-rule:nonzero;"/>
        <path d="M63.848,125.065L1.94,63.173L64.002,1.002L125.91,62.894L63.848,125.065ZM3.932,63.173L63.848,123.253L124.071,63.034L64.155,2.954L3.932,63.173Z" style="fill-rule:nonzero;"/>
        <path d="M54.347,12.294L56.492,11.179L54.193,8.949L14.657,8.949L12.665,10.901L12.665,18.568L14.964,20.798L16.037,18.568L14.658,17.174L14.658,11.738L15.731,10.762L53.581,10.762L54.347,12.295L54.347,12.294Z" style="fill:rgb(254,254,254);fill-rule:nonzero;"/>
        <path d="M14.965,20.936L12.513,18.566L12.513,10.899L14.658,8.808L54.347,8.808L56.799,11.178L54.347,12.433L53.428,10.9L15.578,10.9L14.659,11.736L14.659,17.033L16.038,18.427L14.965,20.936ZM12.82,18.427L14.965,20.518L15.884,18.566L14.505,17.172L14.505,11.736L15.578,10.76L53.428,10.76L54.347,12.293L56.339,11.178L54.194,9.087L14.658,9.087L12.666,11.039L12.666,18.427L12.82,18.427Z" style="fill-rule:nonzero;"/>
        <path d="M30.748,108.895L23.239,108.895L22.013,107.64L22.013,18.566L15.577,18.566L14.198,17.311L14.198,11.875L15.424,10.62L52.968,10.62L54.347,11.735L54.347,17.032L52.815,18.565L45.766,18.565L45.766,66.517L88.366,23.304L88.366,18.565L81.93,18.565L80.704,17.31L80.704,12.013L82.236,10.48L119.167,10.48L120.699,12.013L120.699,16.195L30.748,108.894L30.748,108.895ZM23.393,108.756L30.748,108.756L120.393,16.057L120.393,12.014L119.014,10.62L82.39,10.62L81.011,12.014L81.011,17.032L82.237,18.147L88.826,18.147L88.826,23.305L45.766,67.076L45.766,18.287L52.968,18.287L54.347,16.893L54.347,11.735L53.121,10.759L15.577,10.759L14.351,11.874L14.351,17.032L15.577,18.147L22.166,18.147L22.166,107.361L23.392,108.755L23.393,108.756Z" style="fill-rule:nonzero;"/>
        <path d="M22.014,18.288L22.014,107.502L23.24,108.757L22.321,110.43L19.716,107.921L19.716,20.659L22.015,18.289L22.014,18.288Z" style="fill:rgb(254,254,254);fill-rule:nonzero;"/>
        <path d="M22.32,110.847L19.562,108.198L19.562,20.657L22.167,18.148L22.167,107.641L23.393,109.035L22.32,110.847ZM19.868,108.059L22.32,110.429L23.086,108.896L22.013,107.641L22.013,18.567L19.868,20.658L19.868,108.06L19.868,108.059Z" style="fill-rule:nonzero;"/>
        <path d="M15.731,18.288L15.118,20.379L19.868,20.379L22.473,18.288L15.73,18.288L15.731,18.288Z" style="fill:rgb(128,128,128);fill-rule:nonzero;"/>
        <path d="M19.868,20.657L14.964,20.657L15.73,18.287L22.932,18.287L19.867,20.657L19.868,20.657ZM15.118,20.378L19.715,20.378L22.014,18.426L15.578,18.426L15.118,20.378Z" style="fill-rule:nonzero;"/>
        <g>
            <path d="M81.47,20.797L82.543,18.567L81.011,17.173L81.011,12.434L82.697,10.622L119.168,10.622L120.547,12.434L122.539,11.04L120.547,8.949L81.318,8.949L79.326,10.901L79.326,18.568L81.471,20.798M49.597,57.459L45.766,66.659L88.826,23.446L88.826,18.288L49.597,57.458L49.597,57.459Z" style="fill:rgb(254,254,254);fill-rule:nonzero;"/>
            <path d="M45.919,66.937L45.766,66.798L49.597,57.458L88.979,18.148L88.979,23.584L45.919,66.936L45.919,66.937ZM49.75,57.597L46.226,66.379L88.826,23.584L88.826,18.705L49.75,57.597ZM81.47,20.796L81.317,20.657L79.325,18.705L79.325,10.899L81.317,8.808L120.699,8.808L122.844,11.178L120.699,12.711L119.32,10.759L82.696,10.759L81.01,12.432L81.01,17.171L82.542,18.565L81.469,20.795L81.47,20.796ZM79.478,18.705L81.47,20.517L82.389,18.565L80.857,17.171L80.857,12.292L82.696,10.48L119.32,10.48L120.699,12.292L122.538,11.037L120.546,9.085L81.317,9.085L79.478,11.037L79.478,18.705Z" style="fill-rule:nonzero;"/>
        </g>
        <g>
            <path d="M54.194,12.015L56.033,10.76L56.033,18.287L53.888,20.517L49.597,20.517L49.597,57.597L45.766,66.797L45.766,18.287L52.815,18.287L54.194,17.172L54.194,12.014L54.194,12.015Z" style="fill:rgb(128,128,128);fill-rule:nonzero;"/>
            <path d="M45.919,66.798L45.766,66.798L45.766,18.288L52.968,18.288L54.194,17.312L54.194,12.154L56.339,10.76L56.339,18.566L54.04,20.796L49.903,20.796L49.903,57.736L45.919,66.797L45.919,66.798ZM45.919,18.426L45.919,66.24L49.597,57.597L49.597,20.378L53.888,20.378L56.033,18.287L56.033,11.038L54.347,12.153L54.347,17.311L52.968,18.426L45.919,18.426Z" style="fill-rule:nonzero;"/>
        </g>
        <g>
            <path d="M82.39,10.621L81.011,12.015L81.011,17.173L82.237,18.428L88.673,18.428L88.673,23.446L45.766,66.798L45.766,18.427L52.815,18.427L54.347,17.033L54.347,11.875L52.968,10.899L15.578,10.899L14.352,12.154L14.352,17.451L15.578,18.706L22.167,18.706L22.167,107.78L23.393,109.035L30.748,109.035L120.546,16.336L120.546,12.293L119.167,10.899L82.39,10.899L82.39,10.621Z" style="fill:rgb(204,204,204);fill-rule:nonzero;"/>
            <path d="M30.748,108.895L23.239,108.895L22.013,107.64L22.013,18.566L15.577,18.566L14.198,17.311L14.198,11.875L15.424,10.62L52.968,10.62L54.347,11.735L54.347,17.032L52.815,18.565L45.766,18.565L45.766,66.517L88.366,23.304L88.366,18.565L81.93,18.565L80.704,17.31L80.704,12.013L82.236,10.48L119.167,10.48L120.699,12.013L120.699,16.195L30.748,108.894L30.748,108.895ZM23.393,108.756L30.748,108.756L120.393,16.057L120.393,12.014L119.014,10.62L82.39,10.62L81.011,12.014L81.011,17.032L82.237,18.147L88.826,18.147L88.826,23.305L45.766,67.076L45.766,18.287L52.968,18.287L54.347,16.893L54.347,11.735L53.121,10.759L15.577,10.759L14.351,11.874L14.351,17.032L15.577,18.147L22.166,18.147L22.166,107.361L23.392,108.755L23.393,108.756Z" style="fill-rule:nonzero;"/>
        </g>
        <g>
            <path d="M120.7,12.154L122.692,11.039L122.692,18.148L32.281,110.707L22.627,110.707L23.546,108.895L30.901,108.895L120.546,16.196L120.699,12.153L120.7,12.154Z" style="fill:rgb(128,128,128);fill-rule:nonzero;"/>
            <path d="M32.281,110.847L22.474,110.847L23.547,108.756L30.902,108.756L120.393,16.197L120.546,12.154L122.691,10.899L122.691,18.426L32.28,110.846L32.281,110.847ZM22.78,110.568L32.128,110.568L122.539,18.148L122.539,11.178L120.7,12.154L120.547,16.197L30.902,109.035L23.547,109.035L22.781,110.568L22.78,110.568Z" style="fill-rule:nonzero;"/>
        </g>
        <g>
            <path d="M88.673,18.427L86.681,20.518L81.471,20.518L82.697,18.427L88.673,18.427Z" style="fill:rgb(128,128,128);fill-rule:nonzero;"/>
            <path d="M86.681,20.657L81.164,20.657L82.543,18.287L88.979,18.287L86.68,20.657L86.681,20.657ZM81.624,20.518L86.681,20.518L88.52,18.566L82.85,18.566L81.624,20.518Z" style="fill-rule:nonzero;"/>
        </g>
        <g>
            <path d="M67.219,70.561C67.219,70.561 67.066,70.561 67.066,70.7L65.38,72.233L65.227,72.372L63.541,77.251C63.541,77.39 63.541,77.53 63.694,77.669L65.073,79.063C65.226,79.202 65.226,79.202 65.379,79.202L70.742,79.202C70.895,79.202 70.895,79.202 71.048,79.063L72.427,77.669L72.58,77.53L74.112,72.372C74.112,72.233 74.112,72.093 73.959,71.954L72.733,70.839C72.58,70.7 72.58,70.7 72.427,70.7L67.217,70.7L67.217,70.561L67.219,70.561ZM57.258,84.361C57.105,84.361 56.952,84.5 56.952,84.64L56.339,87.289C56.339,87.568 56.492,87.707 56.645,87.847L60.016,87.847L52.201,110.15C52.201,110.429 52.201,110.568 52.507,110.708L64,110.708C64.153,110.708 64.306,110.569 64.46,110.429L65.226,108.059C65.226,107.78 65.226,107.641 64.92,107.501L62.162,107.501L69.977,84.919C69.977,84.64 69.977,84.501 69.671,84.361L57.258,84.361ZM93.576,84.5C93.423,84.5 93.423,84.5 93.423,84.639L91.124,87.288L87.293,87.288L84.841,84.639C84.841,84.5 84.688,84.5 84.535,84.5L75.341,84.5C75.188,84.5 75.035,84.639 75.035,84.779L74.269,87.288C74.269,87.567 74.269,87.706 74.575,87.846L77.18,87.846L69.671,110.01C69.671,110.289 69.671,110.428 69.977,110.568L79.784,110.568C79.937,110.568 80.09,110.429 80.09,110.289L80.856,108.198C80.856,107.919 80.856,107.78 80.55,107.64L78.711,107.64L83.461,92.585L92.042,92.585L86.525,110.149C86.525,110.428 86.525,110.567 86.831,110.707L96.178,110.707C96.331,110.707 96.484,110.568 96.484,110.428L97.25,108.476C97.403,108.337 97.25,108.058 97.097,107.918L95.258,107.918L100.162,92.584L108.437,92.584L102.92,110.148C102.92,110.427 102.92,110.566 103.226,110.706L113.493,110.706C113.646,110.706 113.799,110.567 113.799,110.427L114.565,108.336C114.565,108.057 114.565,107.918 114.259,107.778L112.114,107.778L118.244,87.844L118.244,87.426L116.405,84.917C116.252,84.778 116.252,84.778 116.099,84.778L108.897,84.778C108.744,84.778 108.744,84.778 108.591,84.917L106.292,87.426L102.308,87.426L100.009,84.777C99.856,84.638 99.856,84.638 99.703,84.638L93.573,84.638L93.573,84.499L93.576,84.5Z" style="fill:rgb(204,204,204);fill-rule:nonzero;"/>
            <path d="M63.849,111.683L52.508,111.683C52.355,111.683 52.202,111.683 52.048,111.544C51.282,111.265 50.975,110.568 51.129,109.871L58.484,88.822L56.339,88.822C55.573,88.683 55.113,87.846 55.42,87.149L56.033,84.5C56.186,83.942 56.493,83.664 57.106,83.524L69.365,83.524C69.518,83.524 69.671,83.524 69.825,83.663C70.591,83.942 70.898,84.639 70.744,85.336L63.389,106.664L65.075,106.664C65.841,106.943 66.148,107.64 65.994,108.337L65.228,110.707C64.922,111.265 64.462,111.683 63.849,111.683ZM59.864,86.87L61.243,86.87L53.275,109.731L63.542,109.731L64.002,108.476L60.784,108.476L68.752,85.336L58.025,85.336L57.565,86.869L59.864,86.869L59.864,86.87ZM113.344,111.404L102.77,111.404C102.004,111.125 101.697,110.428 101.851,109.731L107.061,93.422L100.778,93.422L96.487,106.804L96.793,106.804C96.946,106.804 97.099,106.804 97.253,106.943C98.019,107.222 98.326,108.058 98.019,108.755L97.253,110.707C97.1,111.265 96.487,111.543 96.027,111.543L86.373,111.543C85.607,111.264 85.3,110.567 85.454,109.87L90.664,93.421L83.921,93.421L79.784,106.524L80.09,106.524C80.243,106.524 80.396,106.524 80.55,106.663C81.316,106.942 81.623,107.639 81.469,108.336L80.703,110.566C80.55,111.124 79.937,111.402 79.477,111.542L69.823,111.542C69.67,111.542 69.517,111.542 69.363,111.403C68.597,111.124 68.29,110.427 68.444,109.73L75.493,88.82L74.42,88.82C74.267,88.82 74.114,88.82 73.96,88.681C73.194,88.402 72.887,87.705 73.041,87.008L73.807,84.499C73.96,83.941 74.573,83.523 75.033,83.523L84.074,83.523C84.38,83.523 84.84,83.662 84.993,83.941L87.292,86.311L90.204,86.311L92.349,83.941C92.502,83.662 92.809,83.523 93.115,83.523L99.244,83.523C99.55,83.523 100.01,83.662 100.163,83.941L102.308,86.171L105.526,86.171L107.518,83.941C107.824,83.662 108.131,83.523 108.437,83.523L115.639,83.523C116.099,83.523 116.405,83.662 116.712,84.081L118.551,86.59C118.857,86.869 118.857,87.426 118.704,87.845L113.034,106.524L113.8,106.524C113.953,106.524 114.106,106.524 114.26,106.663C115.026,106.942 115.333,107.639 115.026,108.336L114.26,110.566C114.413,110.984 113.954,111.402 113.341,111.402L113.344,111.404ZM77.026,86.87L78.405,86.87L70.743,109.452L79.171,109.452L79.477,108.337L77.332,108.337L82.695,91.331L93.268,91.331L87.598,109.453L95.72,109.453L96.026,108.617L93.881,108.617L99.398,91.471L109.665,91.471L103.995,109.593L113.036,109.593L113.496,108.478L111.044,108.478L117.48,87.568L115.948,85.477L109.205,85.477L106.753,88.126L101.849,88.126L99.397,85.338L94.034,85.338L91.582,88.126L86.985,88.126L84.38,85.338L75.952,85.338L75.492,86.732L77.024,86.732L77.026,86.87ZM70.439,80.04L65.074,80.04C64.768,80.04 64.308,79.901 64.155,79.622L62.776,78.228C62.47,77.81 62.316,77.252 62.47,76.834L64.156,71.955C64.156,71.676 64.309,71.537 64.462,71.397L66.148,69.864C66.301,69.725 66.454,69.585 66.761,69.585L71.971,69.585C72.277,69.585 72.584,69.724 72.89,70.003L74.116,71.118C74.422,71.397 74.576,71.954 74.422,72.512L72.89,77.67C72.89,77.949 72.737,78.088 72.584,78.228L71.205,79.622C71.205,79.901 70.745,80.04 70.439,80.04ZM64.461,77.252L65.38,78.228L70.284,78.228L71.357,77.113L72.736,72.374L71.97,71.677L67.373,71.677L65.841,72.932L64.462,77.253L64.461,77.252Z" style="fill-rule:nonzero;"/>
        </g>
        <g>
            <path d="M67.219,70.98L65.533,72.513L63.847,77.392L65.226,78.786L70.589,78.786L71.968,77.392L73.5,72.234L72.274,71.119L67.217,71.119L67.219,70.98ZM57.412,84.78L56.799,87.429L60.477,87.429L52.509,110.29L63.849,110.29L64.615,107.92L61.55,107.92L69.518,84.78L57.412,84.78ZM93.576,84.78L91.124,87.568L86.987,87.568L84.382,84.78L75.341,84.78L74.575,87.289L77.487,87.289L69.825,109.871L79.479,109.871L80.245,107.78L77.946,107.78L83.003,92.028L92.504,92.028L86.834,110.01L96.028,110.01L96.794,108.058L94.495,108.058L99.552,91.888L108.593,91.888L102.923,110.01L113.037,110.01L113.803,107.919L111.198,107.919L117.481,87.567L115.642,85.058L108.44,85.058L105.988,87.707L101.544,87.707L99.092,84.919L93.575,84.919L93.576,84.78Z" style="fill:rgb(204,204,204);fill-rule:nonzero;"/>
            <path d="M64.001,110.429L52.355,110.429L60.323,87.568L56.645,87.568L57.411,84.641L69.67,84.641L61.548,107.781L64.613,107.781L64,110.43L64.001,110.429ZM52.661,110.15L63.847,110.15L64.46,107.92L61.395,107.92L69.21,84.92L57.564,84.92L56.951,87.29L60.629,87.29L52.661,110.151L52.661,110.15ZM113.497,110.15L103.077,110.15L108.747,92.028L99.859,92.028L94.802,107.919L97.101,107.919L96.182,110.149L86.681,110.149L92.351,92.167L83.157,92.167L78.253,107.779L80.552,107.779L79.786,110.149L69.979,110.149L77.641,87.567L74.729,87.567L75.648,84.918L84.842,84.918L87.447,87.706L91.431,87.706L93.883,84.918L99.859,84.918L102.311,87.706L106.602,87.706L109.054,85.057L116.409,85.057L118.401,87.706L112.118,107.919L114.723,107.919L113.497,110.149L113.497,110.15ZM103.383,109.871L113.344,109.871L114.11,107.919L111.505,107.919L117.788,87.428L115.949,84.919L108.747,84.919L106.295,87.568L101.851,87.568L99.399,84.78L93.729,84.78L91.277,87.568L86.986,87.568L84.381,84.78L75.493,84.78L74.727,87.01L77.639,87.01L69.977,109.592L79.325,109.592L79.938,107.64L77.639,107.64L82.696,91.609L92.503,91.609L86.833,109.591L95.874,109.591L96.64,107.779L94.495,107.779L99.705,91.47L109.053,91.47L103.383,109.87L103.383,109.871ZM70.437,78.786L64.92,78.786L63.541,77.392L65.38,72.374L67.219,70.841L72.276,70.841L73.502,72.096L71.97,77.254L70.438,78.787L70.437,78.786ZM65.072,78.647L70.284,78.647L71.663,77.253L73.195,72.235L72.122,71.12L67.218,71.12L65.532,72.514L63.846,77.253L65.072,78.647Z" style="fill-rule:nonzero;"/>
        </g>
    </g>
</svg>
