<?xml version="1.0" encoding="UTF-8" standalone="no"?>
<!DOCTYPE svg PUBLIC "-//W3C//DTD SVG 1.1//EN" "http://www.w3.org/Graphics/SVG/1.1/DTD/svg11.dtd">
<svg width="100%" height="100%" viewBox="0 0 183 128" version="1.1" xmlns="http://www.w3.org/2000/svg" xmlns:xlink="http://www.w3.org/1999/xlink" xml:space="preserve" xmlns:serif="http://www.serif.com/" style="fill-rule:evenodd;clip-rule:evenodd;stroke-linejoin:round;stroke-miterlimit:2;">
    <g transform="matrix(0.53081,0,0,0.53081,-38.026,-89.2058)">
        <path d="M110.133,168.056C109.865,168.056 109.612,168.182 109.45,168.396C109.289,168.61 109.237,168.888 109.311,169.145C113.453,183.665 157.853,339.304 172.865,391.926C175.781,402.148 185.123,409.197 195.753,409.197L235,409.197C235,409.197 253.124,343.384 257.872,326.141C258.538,323.722 260.738,322.046 263.248,322.046L347.021,322.046C347.811,322.046 348.569,322.36 349.127,322.919C349.686,323.477 350,324.235 350,325.025L350,379.149C350,379.64 349.805,380.111 349.458,380.458C349.111,380.805 348.64,381 348.149,381L276.164,381C274.884,381 273.759,381.85 273.409,383.082C271.559,389.603 266,409.197 266,409.197L352.75,409.197C366.695,409.197 378,397.893 378,383.947L378,295L241,295C237.005,301.007 227.948,331.669 215.783,377.461C215.081,380.097 212.695,381.931 209.967,381.931L202.893,381.931C200,381.931 197.461,380.005 196.682,377.219C189.217,350.528 152.378,218.805 146.728,198.602C146.555,197.985 146.681,197.322 147.069,196.811C147.456,196.3 148.061,196 148.702,196L171.536,196C173.004,196 174.303,196.949 174.749,198.348C178.171,209.083 192.298,253.39 195.397,263.11C195.756,264.236 196.802,265 197.984,265L222.52,265C223.098,265 223.641,264.724 223.982,264.257C224.323,263.79 224.421,263.188 224.245,262.638C219.499,247.797 194,168.056 194,168.056L110.133,168.056Z" style="fill:rgb(51,96,182);"/>
        <path d="M249,265L378,265L378,192.441C378,185.974 375.431,179.771 370.858,175.198C366.285,170.625 360.083,168.056 353.615,168.056L279.169,168.056C278.081,168.056 277.124,168.774 276.818,169.818C272.982,182.945 249,265 249,265ZM347.386,195C348.345,195 349.264,195.381 349.942,196.058C350.619,196.736 351,197.655 351,198.614L351,233.587C351,235.472 349.472,237 347.587,237L287.77,237C286.878,237 286.037,236.581 285.5,235.869C284.962,235.156 284.791,234.233 285.036,233.375C287.388,225.142 293.093,205.176 295.2,197.8C295.674,196.142 297.188,195 298.912,195L347.386,195Z" style="fill:rgb(22,53,120);"/>
    </g>
</svg>
