<?xml version="1.0" encoding="UTF-8" standalone="no"?>
<!DOCTYPE svg PUBLIC "-//W3C//DTD SVG 1.1//EN" "http://www.w3.org/Graphics/SVG/1.1/DTD/svg11.dtd">
<svg width="100%" height="100%" viewBox="0 0 209 168" version="1.1" xmlns="http://www.w3.org/2000/svg" xmlns:xlink="http://www.w3.org/1999/xlink" xml:space="preserve" xmlns:serif="http://www.serif.com/" style="fill-rule:evenodd;clip-rule:evenodd;stroke-linejoin:round;stroke-miterlimit:2;">
    <g transform="matrix(1.00521,0,0,1.00521,40.0559,19.6652)">
        <path d="M123.471,13.82L97.097,1.12C94.051,-0.346 90.389,0.277 88,2.668L1.662,81.387C0.554,82.397 -0.078,83.829 -0.078,85.328C-0.078,86.83 0.557,88.264 1.668,89.274L8.72,95.685C10.613,97.407 13.492,97.535 15.531,95.988L119.502,17.113C122.99,14.467 128,16.955 128,21.333L128,21.027C128,17.959 126.235,15.15 123.471,13.819L123.471,13.82Z" style="fill:rgb(0,101,169);fill-rule:nonzero;"/>
        <g>
            <path d="M123.471,114.181L97.097,126.879C94.052,128.345 90.39,127.723 88,125.333L1.662,46.613C0.554,45.603 -0.078,44.171 -0.078,42.672C-0.078,41.17 0.557,39.736 1.668,38.726L8.72,32.315C10.613,30.593 13.492,30.465 15.531,32.012L119.502,110.886C122.99,113.533 128,111.045 128,106.667L128,106.973C128,110.041 126.235,112.85 123.471,114.181Z" style="fill:rgb(0,122,204);fill-rule:nonzero;"/>
        </g>
        <g>
            <path d="M97.098,126.882C94.052,128.347 90.39,127.723 88,125.333C90.952,128.285 96,126.194 96,122.019L96,5.98C96,1.805 90.952,-0.286 88,2.667C90.39,0.277 94.052,-0.347 97.098,1.118L123.467,13.8C126.233,15.13 128,17.94 128,21.01L128,106.992C128,110.062 126.233,112.872 123.467,114.202L97.098,126.883L97.098,126.882Z" style="fill:rgb(31,156,240);fill-rule:nonzero;"/>
        </g>
        <path d="M90.69,127.126C92.748,127.928 95.049,127.84 97.039,126.882L123.392,114.201C126.157,112.87 127.923,110.06 127.922,106.991L127.922,21.009C127.923,17.94 126.157,15.13 123.392,13.799L97.039,1.12C93.994,-0.345 90.334,0.278 87.946,2.668L37.496,48.694L15.522,32.014C13.485,30.467 10.607,30.595 8.715,32.316L1.667,38.727C0.556,39.738 -0.078,41.172 -0.078,42.674C-0.078,44.173 0.554,45.604 1.661,46.615L20.718,64L1.662,81.386C0.555,82.396 -0.077,83.828 -0.077,85.327C-0.077,86.829 0.557,88.263 1.668,89.274L8.716,95.685C10.608,97.406 13.486,97.534 15.523,95.988L37.498,79.307L87.948,125.333C88.728,126.114 89.662,126.725 90.69,127.126ZM95.942,34.942L57.662,64L95.942,93.057L95.942,34.942Z" style="fill:url(#_Linear1);"/>
    </g>
    <defs>
        <linearGradient id="_Linear1" x1="0" y1="0" x2="1" y2="0" gradientUnits="userSpaceOnUse" gradientTransform="matrix(7.79733e-15,127.34,-127.34,7.79733e-15,63.9222,0.329902)"><stop offset="0" style="stop-color:white;stop-opacity:0.25"/><stop offset="1" style="stop-color:white;stop-opacity:0"/></linearGradient>
    </defs>
</svg>
